<?xml version="1.0" standalone="no"?>
<!DOCTYPE svg PUBLIC "-//W3C//DTD SVG 20010904//EN"
 "http://www.w3.org/TR/2001/REC-SVG-20010904/DTD/svg10.dtd">
<svg version="1.0" xmlns="http://www.w3.org/2000/svg"
 width="1024.000000pt" height="1024.000000pt" viewBox="0 0 1024.000000 1024.000000"
 preserveAspectRatio="xMidYMid meet">

<g transform="translate(0.000000,1024.000000) scale(0.100000,-0.100000)"
fill="#000000" stroke="none">
<path d="M5009 7783 c-213 -216 -311 -441 -325 -748 -14 -273 41 -504 176
-738 71 -124 226 -317 254 -317 18 0 155 145 208 220 94 134 178 320 214 475
26 111 27 444 2 557 -40 179 -115 330 -233 473 -68 82 -168 175 -188 175 -6 0
-55 -44 -108 -97z"/>
<path d="M3330 6768 c1 -165 89 -411 208 -577 66 -93 194 -224 283 -291 140
-104 342 -192 539 -235 82 -18 385 -32 444 -21 33 6 36 10 36 40 0 42 -33 171
-66 261 -135 362 -473 670 -881 804 -146 48 -334 81 -464 81 l-99 0 0 -62z"/>
<path d="M6685 6823 c-75 -7 -250 -45 -339 -74 -221 -72 -423 -198 -582 -361
-157 -161 -239 -292 -304 -487 -35 -103 -65 -240 -55 -249 12 -12 296 -14 384
-2 439 58 794 295 989 660 75 140 132 342 132 466 l0 54 -92 -2 c-51 -1 -111
-3 -133 -5z"/>
<path d="M4007 5480 c-222 -39 -387 -271 -349 -490 26 -145 114 -264 239 -323
125 -58 291 -48 405 24 231 148 273 458 87 654 -28 30 -70 65 -93 78 -85 50
-201 72 -289 57z"/>
<path d="M5050 5479 c-109 -21 -235 -111 -293 -209 -99 -169 -62 -402 83 -533
140 -125 358 -143 514 -43 229 147 266 449 82 653 -57 63 -162 119 -251 133
-68 11 -73 11 -135 -1z"/>
<path d="M6071 5474 c-206 -55 -345 -248 -328 -457 12 -146 107 -281 244 -349
65 -32 73 -33 183 -33 106 0 119 2 173 28 84 42 167 123 208 204 33 66 34 72
34 183 0 108 -2 119 -31 180 -17 36 -48 84 -68 107 -101 116 -276 174 -415
137z"/>
<path d="M4507 4579 c-106 -25 -226 -121 -276 -220 -133 -265 22 -572 314
-622 120 -20 247 20 345 110 180 165 185 444 12 618 -26 25 -65 57 -88 70 -82
48 -211 67 -307 44z"/>
<path d="M5551 4575 c-210 -59 -340 -255 -311 -467 27 -190 164 -334 354 -369
179 -33 369 68 448 238 27 57 33 83 36 159 5 112 -12 178 -67 261 -98 145
-298 223 -460 178z"/>
<path d="M4993 3660 c-254 -90 -366 -374 -241 -611 90 -171 293 -264 473 -215
129 34 230 116 287 234 32 64 33 72 33 182 0 110 -2 119 -32 180 -58 118 -137
188 -258 230 -75 26 -190 26 -262 0z"/>
</g>
</svg>
